<svg width="841" height="484" viewBox="0 0 841 484" fill="none" xmlns="http://www.w3.org/2000/svg">
<path d="M591.079 253.201L537.452 278.558L584.915 243.101C577.201 231.072 568.535 219.679 559 209.033L326.423 266.786L536.506 186.723C526.906 178.261 516.71 170.497 505.999 163.492L151.607 220.521C113.98 267.529 93.4677 325.922 93.4387 386.112H626.894C626.873 339.432 614.518 293.584 591.079 253.201Z" fill="#F2F2F2"/>
<path d="M476.994 147.029C423.34 120.957 362.489 113.597 304.157 126.124C245.825 138.651 193.377 170.343 155.185 216.138C238.968 197.798 384.84 166.05 476.994 147.029Z" fill="#F2F2F2"/>
<path d="M428.642 152.175C419.513 179.179 405.514 203.784 376.983 203.784C348.453 203.784 326.932 180.633 325.324 152.175C323.27 115.811 347.795 100.414 376.983 100.565C411.465 100.743 439.477 120.127 428.642 152.175Z" fill="#2F2E41"/>
<path d="M418.86 145.309H334.363V268.333H418.86V145.309Z" fill="#2F2E41"/>
<path d="M364.007 215.946C364.007 215.946 366.71 254.647 360.404 260.947C354.098 267.248 416.259 272.648 415.358 265.448C414.457 258.247 402.745 211.446 406.349 201.545C409.953 191.645 364.007 215.946 364.007 215.946Z" fill="#FFB8B8"/>
<path opacity="0.1" d="M364.007 215.946C364.007 215.946 366.71 254.647 360.404 260.947C354.098 267.248 416.259 272.648 415.358 265.448C414.457 258.247 402.745 211.446 406.349 201.545C409.953 191.645 364.007 215.946 364.007 215.946Z" fill="black"/>
<path d="M304.556 314.953L272.186 424.307L270.889 428.712H216.419C238.093 361.686 291.674 262.846 291.674 262.846L300.038 260.952L304.556 314.953Z" fill="#6B4DA3"/>
<path opacity="0.1" d="M304.556 314.953L272.186 424.307L270.889 428.712H216.419C238.093 361.686 291.674 262.846 291.674 262.846L300.038 260.952L304.556 314.953Z" fill="#7D4CDB"/>
<path d="M374.818 229.446C397.208 229.446 415.358 211.313 415.358 188.945C415.358 166.576 397.208 148.443 374.818 148.443C352.428 148.443 334.278 166.576 334.278 188.945C334.278 211.313 352.428 229.446 374.818 229.446Z" fill="#FFB8B8"/>
<path d="M418.06 253.747C418.06 253.747 403.646 267.247 387.43 264.547C371.214 261.847 364.407 242.146 364.407 242.146L348.692 253.747C348.692 253.747 344.188 286.148 364.908 289.748C385.629 293.348 415.358 294.248 421.664 289.748C427.97 285.248 418.06 253.747 418.06 253.747Z" fill="#3F3D56"/>
<path d="M467.612 301.44L465.027 309.833L428.529 428.712H271.452C271.786 427.26 272.031 425.789 272.187 424.307C274.219 407.385 273.021 364.695 273.021 361.758C273.021 358.151 288.326 269.055 291.946 262.747C292.507 261.984 293.245 261.368 294.096 260.952C298.297 258.541 307.587 255.84 317.602 253.457C317.612 253.448 317.612 253.448 317.62 253.448C323.218 252.088 329.061 250.837 334.359 249.777H334.368C339.566 248.734 344.229 247.882 347.641 247.32C349.48 246.968 351.336 246.711 353.202 246.55C354.037 246.55 354.644 247.538 355.053 249.052C356.423 253.982 355.896 264.541 355.896 264.541C357.113 265.938 358.469 267.207 359.943 268.33C363.406 271.05 367.205 273.313 371.247 275.064C374.712 276.582 378.299 277.804 381.97 278.717H381.979C385.838 279.694 389.765 280.376 393.728 280.756C396.957 281.128 400.223 281.064 403.435 280.566H403.453C413.006 278.989 416.508 273.061 418.141 268.33C418.432 267.469 418.658 266.644 418.858 265.892C418.858 265.883 418.867 265.865 418.867 265.856C419.466 263.544 419.72 261.922 420.355 261.949H420.364C422.006 262.103 442.718 279.841 456.172 291.488C462.559 297.008 467.304 301.177 467.594 301.431L467.612 301.44Z" fill="#7D4CDB"/>
<path opacity="0.1" d="M465.027 309.832L428.529 428.712H413.732C415.062 426.764 415.64 424.4 415.356 422.059C414.884 418.742 425.163 384.943 435.061 353.492C444.061 324.914 452.743 298.303 452.743 298.303L461.298 302.346C461.298 302.346 462.831 305.237 465.027 309.832Z" fill="black"/>
<path d="M491.037 417.545C489.259 417.989 489.449 423.264 489.35 428.712H419.439C420.289 427.66 420.924 426.451 421.307 425.154C421.69 423.857 421.814 422.497 421.671 421.153C421.208 417.971 428.103 385.17 435.061 353.492C440.532 328.44 446.048 304.086 447.962 295.612C448.434 293.563 448.688 292.458 448.688 292.458L449.513 292.847L449.531 292.856L467.594 301.431L467.612 301.44C467.612 301.44 495.537 354.553 486.537 367.151C477.519 379.75 477.519 379.75 481.121 386.058C484.723 392.348 494.63 416.648 491.037 417.545Z" fill="#7D4CDB"/>
<path d="M376.983 111.43C388.245 111.43 397.375 102.309 397.375 91.0578C397.375 79.8065 388.245 70.6855 376.983 70.6855C365.721 70.6855 356.592 79.8065 356.592 91.0578C356.592 102.309 365.721 111.43 376.983 111.43Z" fill="#2F2E41"/>
<path d="M352.513 80.1926C352.514 75.1424 354.391 70.2724 357.782 66.5271C361.173 62.7819 365.836 60.4284 370.866 59.9232C370.195 59.8566 369.515 59.8203 368.826 59.8203C363.418 59.8203 358.232 61.9667 354.407 65.7872C350.583 69.6078 348.435 74.7895 348.435 80.1926C348.435 85.5956 350.583 90.7774 354.407 94.598C358.232 98.4185 363.418 100.565 368.826 100.565C369.515 100.565 370.195 100.529 370.866 100.462C365.836 99.9568 361.173 97.6033 357.782 93.858C354.391 90.1128 352.514 85.2427 352.513 80.1926Z" fill="#2F2E41"/>
<path d="M361.983 137.916C361.983 137.916 361.558 135.548 344.905 141.787C328.252 148.026 318.27 194.066 326.596 221.101C329.952 231.996 327.222 239.851 322.767 245.347C306.048 265.973 312.63 296.951 336.982 307.557C337.669 307.857 338.37 308.153 339.086 308.445L349.494 314.684C349.494 314.684 336.226 297.243 342.866 274.932C348.632 255.923 349.344 235.741 344.932 216.373C344.17 213.105 343.305 209.738 342.322 206.301C333.995 177.186 338.045 180.548 367.187 151.433C367.187 151.433 383.84 163.911 398.411 170.15C412.983 176.389 425.472 182.628 415.064 203.424C404.656 224.22 379.677 242.937 396.33 269.972C412.983 297.007 415.064 286.609 412.983 297.007L410.901 307.405L423.391 294.928L415.064 311.565C415.064 311.565 442.125 311.565 450.452 290.768L454.615 294.928C454.615 294.928 471.268 265.813 440.043 238.778C440.043 238.778 429.635 232.539 444.207 211.743C458.778 190.946 447.587 146.234 428.853 137.916C410.118 129.597 361.983 137.916 361.983 137.916Z" fill="#2F2E41"/>
<path d="M374.819 268.882L340.134 328.9H348.242V337L387.661 268.882H374.819Z" fill="#3F3D56"/>
<path d="M827.392 388.832H686.771V444.12H827.392V388.832Z" fill="#F2F2F2"/>
<path d="M809.701 459.528H704.462V468.592H809.701V459.528Z" fill="#F2F2F2"/>
<path d="M809.701 475.843H704.462V483.094H809.701V475.843Z" fill="#F2F2F2"/>
<path d="M14.5156 14.5019C16.5198 14.5019 18.1445 12.8787 18.1445 10.8764C18.1445 8.87415 16.5198 7.25098 14.5156 7.25098C12.5114 7.25098 10.8867 8.87415 10.8867 10.8764C10.8867 12.8787 12.5114 14.5019 14.5156 14.5019Z" fill="#6C63FF"/>
<path d="M24.4951 14.5019C26.4993 14.5019 28.124 12.8787 28.124 10.8764C28.124 8.87415 26.4993 7.25098 24.4951 7.25098C22.4909 7.25098 20.8662 8.87415 20.8662 10.8764C20.8662 12.8787 22.4909 14.5019 24.4951 14.5019Z" fill="#6C63FF"/>
<path d="M34.4746 14.5019C36.4788 14.5019 38.1035 12.8787 38.1035 10.8764C38.1035 8.87415 36.4788 7.25098 34.4746 7.25098C32.4704 7.25098 30.8457 8.87415 30.8457 10.8764C30.8457 12.8787 32.4704 14.5019 34.4746 14.5019Z" fill="#6C63FF"/>
<path d="M841 484H0V0H841V484ZM1.81446 482.187H839.186V1.81273H1.81446V482.187Z" fill="#343241"/>
<path d="M840.093 18.2058H0.907227V20.0185H840.093V18.2058Z" fill="#2F2E41"/>
<path d="M38.1035 33.5356H10.8867V35.3484H38.1035V33.5356Z" fill="#2F2E41"/>
<path d="M38.1035 40.7866H10.8867V42.5994H38.1035V40.7866Z" fill="#2F2E41"/>
<path d="M38.1035 48.0374H10.8867V49.8501H38.1035V48.0374Z" fill="#2F2E41"/>
<path d="M579.718 49.8503H242.23V33.5356H579.718V49.8503ZM244.044 48.0375H577.904V35.3484H244.044V48.0375Z" fill="#2F2E41"/>
<path d="M566.11 43.9587C565.392 43.9587 564.691 43.7461 564.094 43.3477C563.497 42.9493 563.032 42.3831 562.757 41.7206C562.483 41.0582 562.411 40.3292 562.551 39.6259C562.691 38.9227 563.036 38.2767 563.544 37.7696C564.051 37.2626 564.698 36.9173 565.402 36.7774C566.106 36.6375 566.836 36.7093 567.499 36.9837C568.162 37.2581 568.728 37.7228 569.127 38.319C569.526 38.9152 569.739 39.6162 569.739 40.3332C569.738 41.2945 569.355 42.216 568.675 42.8957C567.994 43.5754 567.072 43.9577 566.11 43.9587ZM566.11 38.5205C565.751 38.5205 565.4 38.6268 565.102 38.826C564.803 39.0252 564.571 39.3083 564.434 39.6395C564.296 39.9708 564.26 40.3352 564.33 40.6869C564.4 41.0385 564.573 41.3615 564.827 41.615C565.081 41.8685 565.404 42.0412 565.756 42.1111C566.108 42.1811 566.473 42.1452 566.804 42.008C567.136 41.8708 567.419 41.6384 567.619 41.3403C567.818 41.0422 567.924 40.6918 567.924 40.3332C567.924 39.8526 567.732 39.3919 567.392 39.052C567.052 38.7122 566.591 38.521 566.11 38.5205Z" fill="#2F2E41"/>
<path d="M568.61 41.6562L567.347 42.9573L570.922 46.4221L572.185 45.121L568.61 41.6562Z" fill="#2F2E41"/>
<path d="M782.938 49.8503H764.793V33.5356H782.938V49.8503ZM766.607 48.0375H781.123V35.3484H766.607V48.0375Z" fill="#2F2E41"/>
<path d="M805.618 49.8503H787.474V33.5356H805.618V49.8503ZM789.288 48.0375H803.804V35.3484H789.288V48.0375Z" fill="#2F2E41"/>
<path d="M828.299 49.8503H810.154V33.5356H828.299V49.8503ZM811.969 48.0375H826.484V35.3484H811.969V48.0375Z" fill="#2F2E41"/>
<path d="M619.637 439.588H603.306V454.09H619.637V439.588Z" fill="#FF6584"/>
<path d="M642.317 439.588H625.987V454.09H642.317V439.588Z" fill="#F2F2F2"/>
<path d="M664.998 439.588H648.668V454.09H664.998V439.588Z" fill="#F2F2F2"/>
<path d="M664.091 429.618H45.3613V77.9475H664.091V429.618ZM47.1758 427.805H662.276V79.7602H47.1758V427.805Z" fill="#2F2E41"/>
<path d="M139.362 397.329V405.845L125.204 397.212C125.128 397.168 125.042 397.144 124.955 397.144C124.868 397.143 124.782 397.165 124.706 397.209C124.63 397.252 124.567 397.315 124.523 397.39C124.479 397.465 124.455 397.551 124.455 397.638V416.301C124.455 416.389 124.479 416.474 124.523 416.55C124.567 416.625 124.63 416.688 124.706 416.731C124.782 416.774 124.868 416.797 124.955 416.796C125.042 416.796 125.128 416.772 125.204 416.728L139.362 408.095V416.61C139.363 416.676 139.389 416.739 139.435 416.785C139.482 416.831 139.544 416.857 139.61 416.858H144.002C144.067 416.857 144.13 416.831 144.176 416.785C144.223 416.739 144.249 416.676 144.249 416.61V397.329C144.249 397.264 144.223 397.201 144.176 397.155C144.13 397.109 144.067 397.082 144.002 397.082H139.61C139.544 397.082 139.482 397.109 139.435 397.155C139.389 397.201 139.363 397.264 139.362 397.329Z" fill="#3F3D56"/>
<path d="M101.603 416.858H97.6568C97.5914 416.858 97.5265 416.846 97.466 416.821C97.4054 416.796 97.3502 416.76 97.3037 416.714C97.2572 416.668 97.2201 416.614 97.1948 416.553C97.1694 416.493 97.1561 416.429 97.1558 416.363V397.577C97.1561 397.511 97.1694 397.447 97.1948 397.386C97.2201 397.326 97.2572 397.272 97.3037 397.226C97.3502 397.18 97.4054 397.144 97.466 397.119C97.5265 397.094 97.5914 397.082 97.6568 397.082H101.603C101.669 397.082 101.733 397.094 101.794 397.119C101.855 397.144 101.91 397.18 101.956 397.226C102.003 397.272 102.04 397.326 102.065 397.386C102.091 397.447 102.104 397.511 102.104 397.577V416.363C102.104 416.429 102.091 416.493 102.065 416.553C102.04 416.614 102.003 416.668 101.956 416.714C101.91 416.76 101.855 416.796 101.794 416.821C101.733 416.846 101.669 416.858 101.603 416.858ZM112.49 416.858H108.544C108.478 416.858 108.413 416.846 108.353 416.821C108.292 416.796 108.237 416.76 108.19 416.714C108.144 416.668 108.107 416.614 108.081 416.553C108.056 416.493 108.043 416.429 108.042 416.363V397.577C108.043 397.511 108.056 397.447 108.081 397.386C108.107 397.326 108.144 397.272 108.19 397.226C108.237 397.18 108.292 397.144 108.353 397.119C108.413 397.094 108.478 397.082 108.544 397.082H112.49C112.555 397.082 112.62 397.094 112.681 397.119C112.741 397.144 112.797 397.18 112.843 397.226C112.89 397.272 112.927 397.326 112.952 397.386C112.977 397.447 112.991 397.511 112.991 397.577V416.363C112.991 416.429 112.977 416.493 112.952 416.553C112.927 416.614 112.89 416.668 112.843 416.714C112.797 416.76 112.741 416.796 112.681 416.821C112.62 416.846 112.555 416.858 112.49 416.858Z" fill="#3F3D56"/>
<path d="M71.671 397.595V416.345C71.6662 416.432 71.685 416.518 71.7253 416.595C71.7657 416.672 71.8261 416.737 71.9002 416.782C71.9744 416.828 72.0595 416.853 72.1465 416.854C72.2335 416.855 72.3193 416.833 72.3947 416.79L87.2712 407.415C87.344 407.366 87.4037 407.301 87.445 407.224C87.4862 407.147 87.5078 407.06 87.5078 406.973C87.5078 406.886 87.4862 406.8 87.445 406.722C87.4037 406.645 87.344 406.58 87.2712 406.531L72.3947 397.157C72.32 397.112 72.2345 397.088 72.1474 397.089C72.0603 397.089 71.975 397.113 71.9005 397.158C71.8261 397.203 71.7654 397.268 71.7249 397.345C71.6845 397.422 71.6658 397.508 71.671 397.595Z" fill="#7D4CDB"/>
<path d="M634.606 384.3H74.8462V387.925H634.606V384.3Z" fill="#2F2E41"/>
<path d="M172.373 384.3H74.8462V387.925H172.373V384.3Z" fill="#7D4CDB"/>
<path d="M303.014 441.401H46.2686V451.371H303.014V441.401Z" fill="#F2F2F2"/>
<path d="M102.517 464.06H46.2686V474.03H102.517V464.06Z" fill="#F2F2F2"/>
<path d="M827.392 96.9812H686.771V152.27H827.392V96.9812Z" fill="#F2F2F2"/>
<path d="M809.701 167.678H704.462V176.742H809.701V167.678Z" fill="#F2F2F2"/>
<path d="M809.701 183.992H704.462V193.056H809.701V183.992Z" fill="#F2F2F2"/>
<path d="M809.701 200.307H704.462V209.371H809.701V200.307Z" fill="#F2F2F2"/>
<path d="M827.392 242.906H686.771V298.195H827.392V242.906Z" fill="#F2F2F2"/>
<path d="M809.701 313.603H704.462V322.667H809.701V313.603Z" fill="#F2F2F2"/>
<path d="M809.701 329.917H704.462V338.981H809.701V329.917Z" fill="#F2F2F2"/>
<path d="M809.701 346.232H704.462V355.296H809.701V346.232Z" fill="#F2F2F2"/>
<path d="M600.46 404.958L598.587 403.545C591.929 398.43 587.538 395.116 587.138 390.545C587.046 389.677 587.13 388.799 587.384 387.963C587.639 387.128 588.058 386.352 588.618 385.681C589.178 385.011 589.866 384.459 590.643 384.059C591.42 383.659 592.27 383.419 593.141 383.353C594.169 383.269 595.203 383.409 596.171 383.764C597.14 384.119 598.019 384.68 598.748 385.409C599.34 384.565 600.108 383.859 601 383.342C601.892 382.824 602.886 382.507 603.913 382.412C604.783 382.326 605.661 382.415 606.496 382.674C607.33 382.933 608.104 383.357 608.772 383.92C609.44 384.483 609.988 385.175 610.384 385.953C610.779 386.732 611.014 387.582 611.075 388.453C611.476 393.024 607.728 397.049 602.059 403.242L600.46 404.958Z" fill="#FF6584"/>
<path d="M622.622 362.657L621.596 360.549C617.987 352.971 615.582 348.027 617.303 343.772C617.616 342.957 618.09 342.213 618.696 341.584C619.302 340.955 620.028 340.454 620.832 340.11C621.635 339.767 622.5 339.588 623.374 339.584C624.248 339.58 625.114 339.752 625.92 340.088C626.874 340.479 627.732 341.073 628.433 341.829C629.135 342.584 629.663 343.483 629.982 344.463C630.893 343.98 631.898 343.7 632.928 343.643C633.957 343.587 634.987 343.755 635.946 344.136C636.76 344.453 637.502 344.931 638.127 345.541C638.753 346.15 639.251 346.879 639.59 347.684C639.929 348.489 640.102 349.353 640.101 350.226C640.1 351.099 639.923 351.963 639.581 352.767C637.86 357.022 632.692 358.908 624.826 361.854L622.622 362.657Z" fill="#FF6584"/>
<path d="M613.55 423.384L612.523 421.276C608.915 413.698 606.509 408.753 608.23 404.499C608.544 403.684 609.017 402.94 609.624 402.311C610.23 401.682 610.956 401.181 611.76 400.837C612.563 400.493 613.428 400.314 614.302 400.311C615.176 400.307 616.041 400.478 616.848 400.815C617.802 401.206 618.66 401.8 619.361 402.555C620.062 403.311 620.591 404.21 620.91 405.19C621.82 404.706 622.825 404.426 623.855 404.37C624.885 404.313 625.915 404.481 626.873 404.862C627.687 405.18 628.429 405.658 629.055 406.267C629.681 406.877 630.178 407.605 630.517 408.41C630.856 409.215 631.03 410.08 631.029 410.953C631.027 411.826 630.851 412.69 630.509 413.494C628.788 417.748 623.619 419.634 615.754 422.58L613.55 423.384Z" fill="#FF6584"/>
</svg>
